<svg version="1.1" id="Capa_1" xmlns="http://www.w3.org/2000/svg"
	xmlns:xlink="http://www.w3.org/1999/xlink" x="0px" y="0px"
	viewBox="0 0 512 512" style="enable-background:new 0 0 512 512;" xml:space="preserve">
<path style="fill:#57BF93;" d="M512,256c0,141.385-114.615,256-256,256S0,397.385,0,256S114.615,0,256,0S512,114.615,512,256z"/>
<path style="fill:#FFF5F5;" d="M279.599,148.388l-81.211,81.211c-7.475,7.475-19.595,7.475-27.07,0l-81.211-81.211
	c-7.475-7.475-7.475-19.595,0-27.071l81.211-81.211c7.475-7.475,19.595-7.475,27.07,0l81.211,81.211
	C287.075,128.793,287.075,140.913,279.599,148.388z"/>
<path style="fill:#E63950;" d="M170.711,35.858l-84.853,84.853c-7.81,7.81-7.811,20.474,0,28.284l84.853,84.853
	c7.811,7.811,20.474,7.81,28.284,0l84.853-84.853c7.81-7.81,7.811-20.474,0-28.284l-84.853-84.853
	C191.184,28.047,178.521,28.047,170.711,35.858z M197.709,204.278c-7.1,7.1-18.612,7.101-25.713,0c-7.1-7.1-7.1-18.612,0-25.713
	s18.612-7.101,25.713,0C204.81,185.665,204.81,197.177,197.709,204.278z M141.141,147.709c-7.1,7.1-18.612,7.101-25.713,0
	c-7.1-7.1-7.1-18.612,0-25.713c7.1-7.1,18.612-7.101,25.713,0S148.241,140.609,141.141,147.709z M197.709,147.709
	c-7.1,7.1-18.612,7.101-25.713,0c-7.1-7.1-7.1-18.612,0-25.713s18.612-7.101,25.713,0S204.81,140.609,197.709,147.709z
	 M254.278,147.709c-7.1,7.1-18.612,7.101-25.713,0c-7.1-7.1-7.1-18.612,0-25.713s18.612-7.101,25.713,0
	C261.378,129.097,261.378,140.609,254.278,147.709z M197.709,91.141c-7.1,7.1-18.612,7.101-25.713,0c-7.1-7.1-7.1-18.612,0-25.713
	s18.612-7.101,25.713,0S204.81,84.04,197.709,91.141z"/>
<path style="fill:#AE2538;" d="M214.289,218.554l-15.294,15.294c-7.811,7.811-20.474,7.811-28.284,0l-84.853-84.853
	c-7.811-7.811-7.811-20.474,0-28.284l15.294-15.294c-7.811,7.811-7.811,20.474,0,28.284l84.853,84.853
	C193.815,226.364,206.478,226.364,214.289,218.554z"/>
<path style="fill:#1FB480;" d="M497.435,170.73l-98.739,245.175c-2.063,5.123-7.889,7.604-13.012,5.54l-135.43-54.542
	c-5.123-2.063-7.603-7.889-5.54-13.012l110.577-274.57c2.063-5.123,7.889-7.604,13.012-5.541l101.03,40.688
	C480.886,131.848,490.367,150.718,497.435,170.73z"/>
<path style="fill:#B4D2D7;" d="M410.906,380.057L233.05,352.356c-5.457-0.85-9.192-5.963-8.342-11.42l45.553-292.474
	c0.85-5.457,5.963-9.192,11.42-8.342l177.856,27.701c5.457,0.85,9.192,5.963,8.342,11.42l-45.553,292.474
	C421.476,377.173,416.363,380.907,410.906,380.057z"/>
<path style="fill:#E1EBF0;" d="M410.906,380.057l-144.261-22.469c-5.457-0.85-9.192-5.963-8.342-11.42l45.553-292.474
	c0.85-5.457,5.963-9.192,11.42-8.342l144.261,22.469c5.457,0.85,9.192,5.963,8.342,11.42l-45.553,292.474
	C421.476,377.173,416.363,380.907,410.906,380.057z"/>
<path style="fill:#9BB9C3;" d="M311.956,73.173c-1.275,8.186-8.944,13.788-17.13,12.513s-13.788-8.944-12.513-17.13
	s8.944-13.788,17.13-12.513C307.629,57.319,313.231,64.988,311.956,73.173z M397.762,334.492
	c-8.186-1.275-15.855,4.327-17.13,12.513s4.327,15.855,12.513,17.13s15.855-4.327,17.13-12.513S405.948,335.767,397.762,334.492z"/>
<path style="fill:#495959;" d="M391.625,247.399L391.625,247.399c-12.726,9.296-30.578,6.516-39.875-6.21l-6.058-8.294l17.4,38.475
	c0.264,0.584,0.157,1.269-0.272,1.745c-0.633,0.702-1.578,1.038-2.512,0.892l-47.35-7.375c-0.922-0.144-1.712-0.737-2.107-1.583
	l-0.006-0.013c-0.277-0.594-0.168-1.297,0.277-1.778l29.06-31.444l-8.545,6.242c-12.726,9.296-30.578,6.516-39.875-6.21l0,0
	c-9.296-12.726-6.515-30.578,6.211-39.875l56.093-40.974c0.892-0.652,2.143-0.457,2.795,0.435l40.975,56.093
	C407.132,220.25,404.351,238.102,391.625,247.399z"/>
<path style="fill:#F3CC50;" d="M313.351,345.356c0,83.698-67.85,151.548-151.548,151.548S10.255,429.054,10.255,345.356
	s67.85-151.548,151.548-151.548S313.351,261.658,313.351,345.356z"/>
<path style="fill:#EEB900;" d="M171.625,496.578c-3.249,0.208-6.522,0.325-9.823,0.325c-83.698,0-151.548-67.85-151.548-151.548
	s67.85-151.548,151.548-151.548c3.301,0,6.574,0.118,9.823,0.325C92.507,199.197,29.9,264.959,29.9,345.356
	S92.507,491.515,171.625,496.578z"/>
<path style="fill:#FFF5F5;" d="M304.245,368.736h-85.997l60.809,60.809c-4.406,6.341-9.418,12.374-15.054,18.01
	s-11.669,10.648-18.01,15.054L185.184,401.8v85.998c-7.6,1.368-15.409,2.09-23.38,2.09c-7.971,0-15.781-0.722-23.38-2.09V401.8
	l-60.811,60.81c-6.341-4.406-12.374-9.418-18.01-15.054s-10.648-11.669-15.055-18.01l60.809-60.809H19.361
	c-1.368-7.6-2.09-15.409-2.09-23.38s0.722-15.781,2.09-23.38h85.998L44.55,261.168c4.406-6.341,9.418-12.374,15.055-18.01
	c5.636-5.636,11.669-10.648,18.01-15.054l60.809,60.809v-85.998c7.6-1.368,15.409-2.09,23.38-2.09c7.971,0,15.781,0.721,23.38,2.09
	v85.998l60.809-60.809c6.341,4.406,12.374,9.418,18.01,15.054s10.648,11.669,15.054,18.01l-60.809,60.809h85.997
	c1.368,7.6,2.09,15.409,2.09,23.38S305.613,361.136,304.245,368.736z"/>
<path style="fill:#EEB900;" d="M264.453,345.356c0,56.692-45.958,102.65-102.65,102.65s-102.65-45.958-102.65-102.65
	s45.958-102.65,102.65-102.65S264.453,288.664,264.453,345.356z"/>
<path style="fill:#FFF5F5;" d="M111.207,310.365v69.982c0,1.402-1.137,2.539-2.539,2.539H97.065c-1.402,0-2.539-1.137-2.539-2.539
	v-69.982c0-1.402,1.137-2.539,2.539-2.539h11.602C110.07,307.826,111.207,308.963,111.207,310.365z M170.143,332.429v25.854
	c0,13.818-11.202,25.02-25.02,25.02l0,0c-13.818,0-25.02-11.202-25.02-25.02v-25.854c0-13.818,11.202-25.02,25.02-25.02l0,0
	C158.941,307.409,170.143,318.611,170.143,332.429z M153.463,332.429c0-4.606-3.734-8.34-8.34-8.34s-8.34,3.734-8.34,8.34v25.854
	c0,4.606,3.734,8.34,8.34,8.34s8.34-3.734,8.34-8.34V332.429z M229.079,332.429v25.854c0,13.818-11.202,25.02-25.02,25.02l0,0
	c-13.818,0-25.02-11.202-25.02-25.02v-25.854c0-13.818,11.202-25.02,25.02-25.02l0,0
	C217.877,307.409,229.079,318.611,229.079,332.429z M212.399,332.429c0-4.606-3.734-8.34-8.34-8.34s-8.34,3.734-8.34,8.34v25.854
	c0,4.606,3.734,8.34,8.34,8.34s8.34-3.734,8.34-8.34V332.429z"/>
<g>
</g>
<g>
</g>
<g>
</g>
<g>
</g>
<g>
</g>
<g>
</g>
<g>
</g>
<g>
</g>
<g>
</g>
<g>
</g>
<g>
</g>
<g>
</g>
<g>
</g>
<g>
</g>
<g>
</g>
</svg>