<svg id="Capa_1" enable-background="new 0 0 510 510" viewBox="0 0 510 510"
    xmlns="http://www.w3.org/2000/svg" xmlns:xlink="http://www.w3.org/1999/xlink">
    <linearGradient id="SVGID_1_" gradientUnits="userSpaceOnUse" x1="199.867" x2="284.867"
        y1="2.537" y2="174.537">
        <stop offset="0" stop-color="#f1b0a2" />
        <stop offset="1" stop-color="#ca6e59" />
    </linearGradient>
    <linearGradient id="lg1">
        <stop offset="0" stop-color="#c4573a" stop-opacity="0" />
        <stop offset=".2342" stop-color="#be5539" stop-opacity=".234" />
        <stop offset=".5454" stop-color="#ad4e35" stop-opacity=".545" />
        <stop offset=".8984" stop-color="#914330" stop-opacity=".898" />
        <stop offset="1" stop-color="#883f2e" />
    </linearGradient>
    <linearGradient id="SVGID_00000108307977504963842230000015519942172152557482_"
        gradientUnits="userSpaceOnUse" x1="255" x2="255" xlink:href="#lg1" y1="4" y2="78.667" />
    <linearGradient id="SVGID_00000108987463085976960650000014189293424060238014_"
        gradientUnits="userSpaceOnUse" x1="337" x2="408.449" xlink:href="#lg1" y1="114.1" y2="114.1" />
    <linearGradient id="SVGID_00000155136642995930938710000016160273985145979048_"
        gradientUnits="userSpaceOnUse" x1="430.944" x2="386.444" xlink:href="#lg1" y1="147.775"
        y2="137.775" />
    <linearGradient id="SVGID_00000016053967729457798440000000569449972877041562_"
        gradientUnits="userSpaceOnUse" x1="267.745" x2="221.745" xlink:href="#lg1" y1="76.069"
        y2="61.569" />
    <linearGradient id="lg2">
        <stop offset="0" stop-color="#eaf9fa" />
        <stop offset="1" stop-color="#b3dafe" />
    </linearGradient>
    <linearGradient id="SVGID_00000044153180399701957030000012914011129390060434_"
        gradientUnits="userSpaceOnUse" x1="187.657" x2="210.488" xlink:href="#lg2" y1="143.465"
        y2="143.465" />
    <linearGradient id="lg3">
        <stop offset="0" stop-color="#ffdfcf" />
        <stop offset="1" stop-color="#ffa78f" />
    </linearGradient>
    <linearGradient id="SVGID_00000062152412482125939070000015492069791810406290_"
        gradientUnits="userSpaceOnUse" x1="189.109" x2="209.927" xlink:href="#lg3" y1="69.157"
        y2="69.157" />
    <linearGradient id="SVGID_00000165227968394732958180000007291106298091356574_"
        gradientUnits="userSpaceOnUse" x1="242.106" x2="264.937" xlink:href="#lg2" y1="162.691"
        y2="162.691" />
    <linearGradient id="SVGID_00000139988675827060415020000013802950482726798254_"
        gradientUnits="userSpaceOnUse" x1="243.558" x2="264.376" xlink:href="#lg3" y1="107.608"
        y2="107.608" />
    <linearGradient id="SVGID_00000088836318624682430480000016504753847387757971_"
        gradientUnits="userSpaceOnUse" x1="296.554" x2="319.385" xlink:href="#lg2" y1="162.691"
        y2="162.691" />
    <linearGradient id="SVGID_00000088837148315331908970000016549500622920299198_"
        gradientUnits="userSpaceOnUse" x1="298.007" x2="318.825" xlink:href="#lg3" y1="107.608"
        y2="107.608" />
    <linearGradient id="SVGID_00000079470413616297977740000010273102282813220536_"
        gradientUnits="userSpaceOnUse" x1="351.003" x2="373.834" xlink:href="#lg2" y1="162.691"
        y2="162.691" />
    <linearGradient id="SVGID_00000094594251839705706790000003118188328555534473_"
        gradientUnits="userSpaceOnUse" x1="352.455" x2="373.274" xlink:href="#lg3" y1="107.608"
        y2="107.608" />
    <linearGradient id="SVGID_00000125571042488304511530000015090125930995544992_"
        gradientUnits="userSpaceOnUse" x1="133.208" x2="156.039" xlink:href="#lg2" y1="162.691"
        y2="162.691" />
    <linearGradient id="SVGID_00000169538732915627284460000014142290046531410823_"
        gradientUnits="userSpaceOnUse" x1="134.66" x2="155.478" xlink:href="#lg3" y1="107.608"
        y2="107.608" />
    <linearGradient id="SVGID_00000023251751632226592070000009164284809413482169_"
        gradientUnits="userSpaceOnUse" x1="255" x2="255" y1="202.667" y2="240.69">
        <stop offset="0" stop-color="#b3dafe" stop-opacity="0" />
        <stop offset=".2438" stop-color="#acd5fa" stop-opacity=".244" />
        <stop offset=".589" stop-color="#9ac5f0" stop-opacity=".589" />
        <stop offset=".9932" stop-color="#7cacdf" stop-opacity=".993" />
        <stop offset="1" stop-color="#7bacdf" />
    </linearGradient>
    <linearGradient id="SVGID_00000050647542618544575960000008052760345485324935_"
        gradientUnits="userSpaceOnUse" x1="158.994" x2="351.25" y1="245.464" y2="437.72">
        <stop offset="0" stop-color="#fac600" />
        <stop offset="1" stop-color="#f46700" />
    </linearGradient>
    <linearGradient id="lg4">
        <stop offset="0" stop-color="#fea613" stop-opacity="0" />
        <stop offset="1" stop-color="#e94444" />
    </linearGradient>
    <linearGradient id="SVGID_00000153683919776075454430000006705832654754011299_"
        gradientUnits="userSpaceOnUse" x1="255" x2="255" xlink:href="#lg4" y1="244.667" y2="279.741" />
    <linearGradient id="SVGID_00000174564789283641225810000003303184110779902596_"
        gradientUnits="userSpaceOnUse" x1="369.5" x2="410.937" xlink:href="#lg4" y1="341.47"
        y2="341.47" />
    <linearGradient id="SVGID_00000168800487953107178370000006186478124721121163_"
        gradientUnits="userSpaceOnUse" x1="164.019" x2="346.213" y1="291.108" y2="473.301">
        <stop offset="0" stop-color="#fef0ae" />
        <stop offset="1" stop-color="#fac600" />
    </linearGradient>
    <linearGradient id="lg5">
        <stop offset="0" stop-color="#fea613" stop-opacity="0" />
        <stop offset=".2409" stop-color="#fda315" stop-opacity=".241" />
        <stop offset=".4349" stop-color="#fb991a" stop-opacity=".435" />
        <stop offset=".6125" stop-color="#f88822" stop-opacity=".613" />
        <stop offset=".7804" stop-color="#f2702e" stop-opacity=".78" />
        <stop offset=".94" stop-color="#ec523d" stop-opacity=".94" />
        <stop offset="1" stop-color="#e94444" />
    </linearGradient>
    <linearGradient id="SVGID_00000120547007947677041190000004364538410356258236_"
        gradientUnits="userSpaceOnUse" x1="255" x2="255" xlink:href="#lg5" y1="453.539" y2="518.741" />
    <linearGradient id="SVGID_00000135671675929809931770000000925487984477949086_"
        gradientUnits="userSpaceOnUse" x1="341.466" x2="436.167" xlink:href="#lg5" y1="382.089"
        y2="382.089" />
    <g>
        <g>
            <path
                d="m392.562 228.199h-275.124c-9.007 0-16.308-7.301-16.308-16.308v-195.583c0-9.007 7.301-16.308 16.308-16.308h275.124c9.007 0 16.308 7.301 16.308 16.308v195.583c0 9.007-7.301 16.308-16.308 16.308z"
                fill="url(#SVGID_1_)" />
            <path
                d="m372.298 0h-234.596c-7.68 0-13.906 7.301-13.906 16.308v27.257c0 6.131 4.97 11.102 11.102 11.102h240.203c6.131 0 11.102-4.97 11.102-11.102v-27.257c0-9.007-6.225-16.308-13.905-16.308z"
                fill="url(#SVGID_00000108307977504963842230000015519942172152557482_)" />
            <path
                d="m408.87 211.891v-195.583c0-9.007-7.301-16.308-16.308-16.308h-176.187v228.199h176.187c9.007 0 16.308-7.301 16.308-16.308z"
                fill="url(#SVGID_00000108987463085976960650000014189293424060238014_)" />
            <path d="m408.87 96.87-20.87-20.87v124.25h20.87z"
                fill="url(#SVGID_00000155136642995930938710000016160273985145979048_)" />
        </g>
        <path d="m224.5 37.25 50.375 50.375h-50.375z"
            fill="url(#SVGID_00000016053967729457798440000000569449972877041562_)" />
        <g>
            <g>
                <path
                    d="m216.886 253.165h-32.669c-6.014 0-10.89-4.876-10.89-10.89v-197.62c0-6.014 4.876-10.89 10.89-10.89h32.669c6.014 0 10.89 4.876 10.89 10.89v197.62c0 6.014-4.876 10.89-10.89 10.89z"
                    fill="url(#SVGID_00000044153180399701957030000012914011129390060434_)" />
                <path
                    d="m216.886 33.765h-32.669c-6.014 0-10.89 4.875-10.89 10.89v59.894h54.449v-59.894c0-6.014-4.876-10.89-10.89-10.89z"
                    fill="url(#SVGID_00000062152412482125939070000015492069791810406290_)" />
            </g>
            <g>
                <path
                    d="m271.335 253.165h-32.669c-6.014 0-10.89-4.876-10.89-10.89v-159.169c0-6.014 4.876-10.89 10.89-10.89h32.669c6.014 0 10.89 4.876 10.89 10.89v159.169c-.001 6.014-4.876 10.89-10.89 10.89z"
                    fill="url(#SVGID_00000165227968394732958180000007291106298091356574_)" />
                <path
                    d="m271.335 72.216h-32.669c-6.014 0-10.89 4.875-10.89 10.89v59.894h54.449v-59.894c-.001-6.014-4.876-10.89-10.89-10.89z"
                    fill="url(#SVGID_00000139988675827060415020000013802950482726798254_)" />
            </g>
            <g>
                <path
                    d="m325.784 253.165h-32.669c-6.014 0-10.89-4.876-10.89-10.89v-159.169c0-6.014 4.876-10.89 10.89-10.89h32.669c6.014 0 10.89 4.876 10.89 10.89v159.169c-.001 6.014-4.876 10.89-10.89 10.89z"
                    fill="url(#SVGID_00000088836318624682430480000016504753847387757971_)" />
                <path
                    d="m325.784 72.216h-32.669c-6.014 0-10.89 4.875-10.89 10.89v59.894h54.449v-59.894c-.001-6.014-4.876-10.89-10.89-10.89z"
                    fill="url(#SVGID_00000088837148315331908970000016549500622920299198_)" />
            </g>
            <g>
                <path
                    d="m380.232 253.165h-32.669c-6.014 0-10.89-4.876-10.89-10.89v-159.169c0-6.014 4.876-10.89 10.89-10.89h32.669c6.014 0 10.89 4.876 10.89 10.89v159.169c0 6.014-4.875 10.89-10.89 10.89z"
                    fill="url(#SVGID_00000079470413616297977740000010273102282813220536_)" />
                <path
                    d="m380.232 72.216h-32.669c-6.014 0-10.89 4.875-10.89 10.89v59.894h54.449v-59.894c0-6.014-4.875-10.89-10.89-10.89z"
                    fill="url(#SVGID_00000094594251839705706790000003118188328555534473_)" />
            </g>
            <g>
                <path
                    d="m162.437 253.165h-32.669c-6.014 0-10.89-4.876-10.89-10.89v-159.169c0-6.014 4.876-10.89 10.89-10.89h32.669c6.014 0 10.89 4.876 10.89 10.89v159.169c0 6.014-4.876 10.89-10.89 10.89z"
                    fill="url(#SVGID_00000125571042488304511530000015090125930995544992_)" />
                <path
                    d="m162.437 72.216h-32.669c-6.014 0-10.89 4.875-10.89 10.89v59.894h54.449v-59.894c0-6.014-4.876-10.89-10.89-10.89z"
                    fill="url(#SVGID_00000169538732915627284460000014142290046531410823_)" />
            </g>
        </g>
        <path
            d="m118.878 153.333v88.942c0 6.014 4.876 10.89 10.89 10.89h32.669c6.014 0 10.89-4.875 10.89-10.89 0 6.014 4.876 10.89 10.89 10.89h32.669c6.014 0 10.89-4.875 10.89-10.89 0 6.014 4.875 10.89 10.89 10.89h32.669c6.014 0 10.89-4.875 10.89-10.89 0 6.014 4.876 10.89 10.89 10.89h32.669c6.014 0 10.89-4.875 10.89-10.89 0 6.014 4.875 10.89 10.89 10.89h32.669c6.014 0 10.89-4.875 10.89-10.89v-88.942z"
            fill="url(#SVGID_00000023251751632226592070000009164284809413482169_)" />
        <g>
            <path
                d="m408.87 200.28v282.38c0 10.681-8.659 19.34-19.34 19.34h-269.06c-10.681 0-19.34-8.659-19.34-19.34v-282.38c0-10.681 8.659-19.34 19.34-19.34h1.96c5.396 0 10.24 3.311 12.199 8.34l11.184 28.707c4.936 12.67 17.141 21.014 30.739 21.014h156.895c13.598 0 25.803-8.343 30.739-21.014l11.184-28.707c1.959-5.028 6.803-8.34 12.199-8.34h1.96c10.682 0 19.341 8.659 19.341 19.34z"
                fill="url(#SVGID_00000050647542618544575960000008052760345485324935_)" />
            <path
                d="m408.87 200.28v282.38c0 10.681-8.659 19.34-19.34 19.34h-269.06c-10.681 0-19.34-8.659-19.34-19.34v-282.38c0-10.681 8.659-19.34 19.34-19.34h1.96c5.396 0 10.24 3.311 12.199 8.34l11.184 28.707c4.936 12.67 17.141 21.014 30.739 21.014h156.895c13.598 0 25.803-8.343 30.739-21.014l11.184-28.707c1.959-5.028 6.803-8.34 12.199-8.34h1.96c10.682 0 19.341 8.659 19.341 19.34z"
                fill="url(#SVGID_00000153683919776075454430000006705832654754011299_)" />
            <path
                d="m408.87 482.66v-282.38c0-10.681-8.659-19.34-19.34-19.34h-1.96c-5.396 0-10.24 3.311-12.199 8.339l-11.184 28.707c-4.937 12.67-17.141 21.014-30.739 21.014h-117.068v263h173.15c10.681 0 19.34-8.659 19.34-19.34z"
                fill="url(#SVGID_00000174564789283641225810000003303184110779902596_)" />
        </g>
        <g>
            <path
                d="m407.191 510h-304.382c-9.475 0-17.156-7.681-17.156-17.156v-221.511c0-9.475 7.681-17.156 17.156-17.156h304.382c9.475 0 17.156 7.681 17.156 17.156v221.511c0 9.475-7.681 17.156-17.156 17.156z"
                fill="url(#SVGID_00000168800487953107178370000006186478124721121163_)" />
            <path
                d="m85.653 424.453v68.391c0 9.475 7.681 17.156 17.156 17.156h304.382c9.475 0 17.156-7.681 17.156-17.156v-68.391z"
                fill="url(#SVGID_00000120547007947677041190000004364538410356258236_)" />
            <path
                d="m424.347 492.844v-221.511c0-9.475-7.681-17.156-17.156-17.156h-185.348v255.823h185.348c9.475 0 17.156-7.681 17.156-17.156z"
                fill="url(#SVGID_00000135671675929809931770000000925487984477949086_)" />
        </g>
    </g>
</svg>