<svg id="Capa_1" viewBox="0 0 512 512"
    xmlns="http://www.w3.org/2000/svg">
    <g>
        <path
            d="m510.722 162.622-8.245-11.476c-2.476-3.446-7.277-4.233-10.723-1.757s-8.247 1.689-10.723-1.757l-4.947-6.886c-2.476-3.447-1.689-8.247 1.757-10.723l16.353-11.749c4.952-3.557 6.082-10.455 2.525-15.407-13.986-19.468-34.348-47.81-48.334-67.279-3.558-4.952-10.455-6.082-15.407-2.525l-16.354 11.749c-3.446 2.476-8.247 1.689-10.723-1.757l-4.947-6.885c-2.476-3.446-1.689-8.247 1.757-10.723s4.233-7.277 1.757-10.723l-8.245-11.476c-2.191-3.05-6.44-3.746-9.49-1.555-10.648 7.65-231.89 166.594-242.538 174.243-3.05 2.191-3.746 6.44-1.555 9.49l8.245 11.476c2.476 3.446 7.277 4.233 10.723 1.757s8.247-1.689 10.723 1.757l4.947 6.885c2.476 3.446 1.689 8.247-1.757 10.723l-16.353 11.749c-4.952 3.557-6.082 10.455-2.525 15.407 4.113 5.725 8.783 12.226 13.674 19.033l6.115 1.069 30.213-18.128.106-3.421c.738-1.667 1.903-3.168 3.484-4.304l8.025-5.765c4.224-3.035 6.35-8.235 5.4-13.349-1.281-6.898-.158-12.586 3.654-15.325 3.813-2.739 9.562-1.987 15.69 1.428 4.543 2.532 10.151 2.177 14.375-.858l33.451-24.031c3.208-2.305 5.262-5.898 5.566-9.836.666-8.623 4.986-16.903 12.56-22.344 7.573-5.441 16.8-6.893 25.184-4.772 3.829.969 7.89.169 11.098-2.136l33.451-24.031c4.224-3.035 6.35-8.235 5.4-13.349-1.281-6.898-.159-12.586 3.654-15.325 3.812-2.739 9.562-1.987 15.69 1.428 4.543 2.532 10.151 2.177 14.375-.858l8.025-5.765c4.743-3.407 11.412-2.315 14.819 2.428l4.905 6.827c3.407 4.743 2.315 11.412-2.428 14.819l-8.025 5.765c-4.224 3.035-6.35 8.235-5.4 13.349 1.281 6.897.158 12.586-3.654 15.325-3.813 2.739-9.562 1.987-15.69-1.428-4.543-2.532-10.151-2.177-14.375.858l-33.451 24.031c-3.208 2.305-5.262 5.898-5.566 9.836-.666 8.623-4.986 16.903-12.56 22.344-7.573 5.441-16.8 6.893-25.184 4.772-3.829-.969-7.89-.169-11.098 2.136l-33.451 24.031c-3.848 2.764-5.946 7.326-5.573 11.982l2.006 3.093 61.402 50.908h4.74c69.196-49.712 164.999-118.538 171.917-123.508 3.05-2.188 3.746-6.437 1.555-9.487z"
            fill="#7b6c79" />
        <g>
            <path
                d="m206.752 243.735c.738-1.667 1.903-3.168 3.484-4.304l8.025-5.765c4.041-2.903 6.155-7.789 5.499-12.685l-2.573-3.581c-2.476-3.446-7.277-4.233-10.723-1.757s-8.247 1.689-10.723-1.757l-8.245-11.476c-2.191-3.05-1.495-7.299 1.555-9.49 8.392-6.029 147.579-106.023 211.405-151.877l-3.5-4.872c-2.476-3.446-1.689-8.247 1.757-10.723s4.233-7.277 1.757-10.723l-8.245-11.476c-2.191-3.05-6.44-3.746-9.49-1.555-10.648 7.65-231.89 166.594-242.538 174.243-3.05 2.191-3.746 6.44-1.555 9.49l8.245 11.476c2.476 3.446 7.277 4.233 10.723 1.757s8.247-1.689 10.723 1.757l4.947 6.885c2.476 3.446 1.689 8.247-1.757 10.723l-16.353 11.749c-4.952 3.557-6.082 10.455-2.525 15.407 4.113 5.725 8.783 12.226 13.674 19.033l6.115 1.069 30.213-18.128z"
                fill="#665e68" />
        </g>
        <path
            d="m474.557 393.351-7.747-2.029c-11.877-3.111-22.155-10.563-28.803-20.885l-14.265-22.148c-9.027-14.016-24.557-22.486-41.228-22.486-20.418 0-38.7-12.651-45.894-31.76-11.523-30.603-40.114-51.255-72.527-52.815l-18.021 6.914-26.995 18.856-84.77 124.792-43.883 6.857-33.255 30.007v76.53l9.501 6.402h431.276c7.304 0 13.226-5.921 13.226-13.226v-57.57c-.001-22.298-15.044-41.789-36.615-47.439z"
            fill="#dbedff" />
        <path
            d="m59.811 498.36v-47.408c0-27.084 21.956-49.04 49.04-49.04h2.481c16.569 0 32.017-8.366 41.071-22.243l66.214-101.485c12.6-19.311 32.633-32.21 54.977-35.941-4.396-.732-8.888-1.123-13.447-1.123h-32.904c-27.609 0-53.351 13.941-68.437 37.064l-66.214 101.485c-9.054 13.876-24.502 22.243-41.071 22.243h-2.481c-27.084 0-49.04 21.956-49.04 49.04v47.408c0 7.304 5.921 13.226 13.226 13.226h59.811c-7.305 0-13.226-5.922-13.226-13.226z"
            fill="#b5dcff" />
        <g>
            <path
                d="m280.103 328.031h-9.08c-4.26 0-7.714-3.453-7.714-7.714s3.454-7.714 7.714-7.714h9.08c4.26 0 7.714 3.453 7.714 7.714s-3.454 7.714-7.714 7.714z"
                fill="#b5dcff" />
        </g>
        <g>
            <path
                d="m334.011 384.942h-9.079c-4.26 0-7.714-3.453-7.714-7.714s3.454-7.714 7.714-7.714h9.079c4.26 0 7.714 3.453 7.714 7.714s-3.453 7.714-7.714 7.714z"
                fill="#b5dcff" />
        </g>
        <g>
            <path
                d="m397.779 436.368h-9.079c-4.26 0-7.714-3.453-7.714-7.714s3.454-7.714 7.714-7.714h9.079c4.26 0 7.714 3.453 7.714 7.714 0 4.26-3.454 7.714-7.714 7.714z"
                fill="#b5dcff" />
        </g>
        <g>
            <path
                d="m173.386 360.6h-9.08c-4.26 0-7.714-3.453-7.714-7.714s3.454-7.714 7.714-7.714h9.08c4.26 0 7.714 3.453 7.714 7.714s-3.453 7.714-7.714 7.714z"
                fill="#b5dcff" />
        </g>
        <g>
            <path
                d="m223.618 403.455h-9.08c-4.26 0-7.714-3.453-7.714-7.714s3.454-7.714 7.714-7.714h9.08c4.26 0 7.714 3.453 7.714 7.714s-3.454 7.714-7.714 7.714z"
                fill="#b5dcff" />
        </g>
        <g>
            <path
                d="m299.385 436.368h-9.08c-4.26 0-7.714-3.453-7.714-7.714s3.454-7.714 7.714-7.714h9.08c4.26 0 7.714 3.453 7.714 7.714 0 4.26-3.454 7.714-7.714 7.714z"
                fill="#b5dcff" />
        </g>
        <g>
            <path
                d="m238.36 471.337h-9.079c-4.26 0-7.714-3.453-7.714-7.714s3.454-7.714 7.714-7.714h9.079c4.26 0 7.714 3.453 7.714 7.714-.001 4.261-3.454 7.714-7.714 7.714z"
                fill="#b5dcff" />
        </g>
    </g>
</svg>