<?xml version="1.0" encoding="iso-8859-1"?>
<!-- Generator: Adobe Illustrator 21.0.0, SVG Export Plug-In . SVG Version: 6.00 Build 0)  -->
<svg xmlns="http://www.w3.org/2000/svg" xmlns:xlink="http://www.w3.org/1999/xlink" version="1.1"
	id="Capa_1" x="0px" y="0px" viewBox="0 0 512 512"
	xml:space="preserve">
<g>
	<g>
		<circle style="fill:#FA5D0F;" cx="256" cy="256" r="256"/>
	</g>
	<g>
		<path style="fill:#D13400;" d="M143.405,435.02l-0.02-0.02C143.385,435.02,143.392,435.025,143.405,435.02z"/>
		<path style="fill:#D13400;" d="M511.548,271.048L317.5,77l-123,38.353l75.115,75.115    c-30.518,59.756-124.662,243.901-126.21,244.552l74.099,74.099C230.061,511.013,242.915,512,256,512    C392.332,512,503.756,405.427,511.548,271.048z"/>
	</g>
	<g>
		<path style="fill:#FFFFFF;" d="M301.454,170.22h-1.956v-54.867H317.5V77h-123v38.353h18.002v54.867h-1.956    c-37.092,0-67.161,30.069-67.161,67.161V435h225.231V237.381C368.615,200.289,338.546,170.22,301.454,170.22z"/>
	</g>
	<g>
		<path style="fill:#E9EDF5;" d="M368.615,237.381c0-37.092-30.069-67.161-67.161-67.161h-1.956v-54.867H317.5V77h-62.286v358    h113.401V237.381z"/>
	</g>
	<g>
		<rect x="163.5" y="256" style="fill:#A3D4FF;" width="185" height="160"/>
	</g>
	<g>
		<rect x="255.214" y="256" style="fill:#87C7FF;" width="93.286" height="160"/>
	</g>
	<g>
		<path style="fill:#333940;" d="M206.895,319.123v-9.271h21.277v18.998c-4.073,2.776-7.675,4.666-10.806,5.669    s-6.845,1.504-11.141,1.504c-5.289,0-9.601-0.901-12.934-2.705c-3.334-1.803-5.917-4.488-7.751-8.055    c-1.834-3.566-2.751-7.66-2.751-12.28c0-4.863,1.003-9.093,3.01-12.69c2.006-3.597,4.943-6.327,8.814-8.192    c3.02-1.438,7.082-2.158,12.189-2.158c4.924,0,8.606,0.446,11.049,1.338c2.441,0.892,4.468,2.275,6.079,4.149    c1.611,1.875,2.821,4.25,3.633,7.128l-13.283,2.371c-0.548-1.682-1.475-2.969-2.781-3.86c-1.308-0.892-2.975-1.337-5.001-1.337    c-3.02,0-5.426,1.048-7.219,3.146c-1.794,2.097-2.69,5.416-2.69,9.955c0,4.823,0.907,8.268,2.721,10.335s4.342,3.1,7.584,3.1    c1.54,0,3.009-0.223,4.407-0.668c1.398-0.445,2.999-1.206,4.803-2.28v-4.195H206.895z"/>
		<path style="fill:#333940;" d="M236.409,290.703h13.77v15.593h15.047v-15.593h13.83v44.561h-13.83v-18.025h-15.047v18.025h-13.77    V290.703z"/>
		<polygon style="fill:#23272B;" points="265.226,290.703 265.226,306.296 255.214,306.296 255.214,317.239 265.226,317.239     265.226,335.264 279.056,335.264 279.056,290.703   "/>
		<path style="fill:#23272B;" d="M288.235,290.703h25.776c4.296,0,7.594,1.064,9.894,3.191c2.3,2.128,3.45,4.762,3.45,7.903    c0,2.634-0.821,4.894-2.462,6.778c-1.095,1.257-2.695,2.249-4.803,2.979c3.201,0.77,5.557,2.092,7.067,3.966    c1.509,1.875,2.264,4.23,2.264,7.067c0,2.31-0.537,4.388-1.61,6.231c-1.074,1.844-2.544,3.303-4.408,4.377    c-1.154,0.668-2.897,1.155-5.228,1.459c-3.101,0.406-5.157,0.608-6.171,0.608h-23.77V290.703z M302.126,308.181h5.988    c2.147,0,3.643-0.37,4.483-1.11c0.841-0.739,1.262-1.809,1.262-3.207c0-1.297-0.421-2.31-1.262-3.04s-2.305-1.094-4.392-1.094    h-6.08V308.181z M302.126,325.689h7.021c2.371,0,4.043-0.42,5.016-1.262c0.973-0.84,1.459-1.97,1.459-3.389    c0-1.317-0.481-2.375-1.443-3.176c-0.963-0.8-2.65-1.201-5.062-1.201h-6.991V325.689z"/>
	</g>
</g>















</svg>