<svg id="Capa_1" enable-background="new 0 0 496.989 496.989" height="512"
    viewBox="0 0 496.989 496.989" xmlns="http://www.w3.org/2000/svg">
    <g>
        <path
            d="m342.546 72.364 56.204 56.205-164.81 164.81c-5.858 5.858-15.355 5.858-21.213 0l-27.92-27.92c-5.858-5.858-5.858-15.355 0-21.213l104.617-118.76z"
            fill="#f8f6f6" />
        <path
            d="m415.016 144.834-53.122 53.122-119.211 105.069c-5.612 5.612-14.906 5.402-20.761-.453l-22.917-22.917c5.855 5.855 15.149 6.064 20.76.453l119.211-105.069 53.122-53.122z"
            fill="#ebebeb" />
        <path
            d="m86.18 408.698c-1.919 0-3.839-.732-5.303-2.197-2.929-2.929-2.929-7.678 0-10.606l92.364-92.364c2.929-2.929 7.678-2.93 10.606 0 2.929 2.929 2.929 7.678 0 10.607l-92.364 92.364c-1.464 1.463-3.384 2.196-5.303 2.196z"
            fill="#6f6571" />
        <path
            d="m210.351 239.912 27.216 27.216-51.593 51.593c-3.905 3.905-10.237 3.905-14.142 0l-13.074-13.073c-3.905-3.905-3.905-10.237 0-14.142z"
            fill="#a4c6f6" />
        <path
            d="m247.47 277.025-51.598 51.598c-3.903 3.903-10.239 3.903-14.142 0l-14.142-14.142c3.903 3.903 10.239 3.903 14.142 0l51.598-51.598z"
            fill="#8ab4f5" />
        <path
            d="m319.369 195.429-90.377 107.139c-5.86 5.86-15.36 5.86-21.21 0l-37.118-37.108c-5.86-5.86-5.86-15.36 0-21.21l19.025-19.025 12.996 1.146-2.391-11.751 24.33-24.331 11.763 2.379-1.154-12.988 29.63-29.63z"
            fill="#ffe187" />
        <path
            d="m337.33 222.521-94.194 94.194c-5.862 5.862-15.358 5.855-21.213 0l-22.917-22.917c5.855 5.855 15.351 5.862 21.213 0l98.759-98.759z"
            fill="#ffd26f" />
        <path d="m395.93 11.535h23.665v116.361h-23.665z" fill="#b3adb5"
            transform="matrix(-.707 -.707 .707 -.707 646.798 407.344)" />
        <path d="m361.188 71.906h116.36v18.84h-116.36z" fill="#a59ba6"
            transform="matrix(.707 -.707 .707 .707 65.324 320.358)" />
        <path
            d="m271.464 226.52c-1.46 1.46-3.38 2.2-5.3 2.2s-3.84-.74-5.31-2.2l-36.23-36.23 10.61-10.61 36.23 36.23c2.93 2.93 2.93 7.68 0 10.61z"
            fill="#f7f7f7" />
        <path
            d="m236.534 261.46c-1.47 1.46-3.39 2.19-5.31 2.19s-3.84-.73-5.3-2.19l-36.23-36.24 10.6-10.6 36.24 36.23c2.92 2.93 2.92 7.68 0 10.61z"
            fill="#f7f7f7" />
        <path d="m332.623 90.551h23.658v84.941h-23.658z" fill="#b3adb5"
            transform="matrix(.707 .707 -.707 .707 194.949 -204.603)" />
        <path d="m313.587 135.215h84.94v18.83h-84.94z" fill="#a59ba6"
            transform="matrix(.707 -.707 .707 .707 2.018 294.132)" />
        <path
            d="m343.191 56.733 73.312 73.312c7.551 7.551 7.551 19.794 0 27.345l-.003.003c-7.551 7.551-19.794 7.551-27.345 0l-73.312-73.312c-7.551-7.551-7.551-19.794 0-27.346l.003-.003c7.55-7.55 19.793-7.55 27.345.001z"
            fill="#a4c6f6" />
        <path
            d="m430.646 171.532-.007.007c-7.552 7.552-19.792 7.545-27.344-.007l-21.213-21.213c7.552 7.552 19.792 7.559 27.344.007l.007-.007c7.552-7.552 7.545-19.792-.007-27.344l21.213 21.213c7.552 7.552 7.559 19.792.007 27.344z"
            fill="#8ab4f5" />
        <path
            d="m434.383 5.086 33.767 33.767c6.782 6.782 6.782 17.777 0 24.559l-.003.003c-6.782 6.782-17.777 6.782-24.559 0l-33.767-33.767c-6.782-6.782-6.782-17.777 0-24.559l.003-.003c6.782-6.781 17.777-6.781 24.559 0z"
            fill="#a4c6f6" />
        <path
            d="m482.294 77.557c-3.387 3.387-7.842 5.084-12.282 5.084-4.448.007-8.888-1.69-12.283-5.084l-21.213-21.213c3.394 3.394 7.835 5.091 12.283 5.084 4.44 0 8.895-1.697 12.282-5.084 6.781-6.781 6.781-17.784 0-24.565l21.213 21.213c6.781 6.781 6.781 17.784 0 24.565z"
            fill="#8ab4f5" />
        <path
            d="m180.508 436.136-37.715-48.385c-12.699-19.659-26.025-36.306-45.911-29.942-10.159 3.251-19.421 9.898-25.908 19.942l-37.714 58.385z"
            fill="#ffe187" />
        <path
            d="m190.504 436.139h-30l-37.71-58.39c-6.49-10.04-15.75-16.69-25.91-19.94 19.88-6.36 43.21.28 55.91 19.94z"
            fill="#ffd26f" />
        <path
            d="m24.633 410.022c-11.159 0-18.41 11.75-13.417 21.73 19.354 38.682 59.342 65.238 105.543 65.238 21.347 0 41.367-5.671 58.635-15.587 32.286-18.541 69.03-27.896 106.261-27.896h159.275c12.008 0 21.742-9.734 21.742-21.742 0-12.008-9.734-21.742-21.742-21.742h-416.297z"
            fill="#f7f7f7" />
        <path
            d="m482.674 431.759c0 12.01-9.74 21.75-21.74 21.75h-30c12 0 21.74-9.74 21.74-21.75 0-6-2.44-11.43-6.37-15.37s-9.37-6.37-15.37-6.37h30c6 0 11.44 2.43 15.37 6.37s6.37 9.37 6.37 15.37z"
            fill="#ebebeb" />
        <path d="m338.968 175.034-5.584 18.905-18.979 5.662-49.541-49.551 24.56-24.56z"
            fill="#a4c6f6" />
        <path d="m361.895 197.956-24.565 24.565-22.925-22.924 24.572-24.558z" fill="#8ab4f5" />
    </g>
</svg>