<svg id="Layer_1" viewBox="0 0 512 512" xmlns="http://www.w3.org/2000/svg">
    <g>
        <g>
            <ellipse cx="346.95" cy="372.079" fill="#70e07a" rx="136.201" ry="136.115" />
            <path
                d="m346.949 235.964c-6.898 0-13.675.517-20.297 1.506 65.594 9.795 115.904 66.328 115.904 134.609s-50.31 124.814-115.904 134.609c6.622.989 13.399 1.506 20.297 1.506 75.222 0 136.201-60.941 136.201-136.115s-60.979-136.115-136.201-136.115z"
                fill="#56d661" />
            <g>
                <g>
                    <path
                        d="m436.605 412.934c-16.926-14.121-40.066-16.379-61.178-13.717 21.781-14.908 41.728-34.307 46.82-61.352-24.876 4.348-47.479 22.283-62.313 42.08 5.797-30.232 6.645-63.033-12.767-88.956-19.435 25.953-18.567 58.801-12.747 89.062-14.798-19.782-37.243-38.562-62.392-42.187 5.007 27.122 25.135 46.529 46.908 61.412-21.21-2.741-44.635-.614-61.64 13.657 18.531 13.307 44.242 15.591 65.728 9.581-5.955 15.436-3.428 26.905-3.428 26.905 11.744-2.684 21.491-10.012 27.543-20.484 5.743 9.936 14.754 17.58 25.905 20.484 0 0 3.918-10.898-1.759-26.905 21.289 6.084 47.001 3.69 65.32-9.58z"
                        fill="#f5f5f5" />
                </g>
            </g>
        </g>
        <g>
            <g>
                <path
                    d="m396.727 161.373-297.295 329.017c-7.104 7.115-19.633 7.505-33.392 1.661-8.267-3.512-44.11 24.703-55.638 13.495-11.48-11.161 16.418-46.537 12.599-54.503-6.357-13.258-6.359-25.414.745-32.529l329.331-298.594 43.65-4.109z"
                    fill="#ab7c5e" />
                <g>
                    <path
                        d="m365.989 118.704 8.891 21.921-320.715 354.195c5.308-2.321 9.619-3.727 11.875-2.769 13.759 5.844 26.288 5.454 33.392-1.661l297.295-329.018v-45.562z"
                        fill="#a17152" />
                </g>
                <g>
                    <path
                        d="m492.14 6.618 16.677 15.838c4.022 3.82 4.264 10.148.546 14.263l-112.636 124.654-43.65-41.453 125.142-113.462c3.967-3.597 10.038-3.527 13.921.16z"
                        fill="#f5f5f5" />
                </g>
                <path
                    d="m508.817 22.456-14.618-13.882-119.319 132.051 21.847 20.748 112.635-124.654c3.719-4.116 3.477-10.443-.545-14.263z"
                    fill="#ededed" />
                <path d="m23.001 451.043 10.375 17.841" fill="#ab7c5e" />
            </g>
            <g>
                <path
                    d="m326.557 207.758c9.795 0 9.811-15.223 0-15.223-9.796 0-9.812 15.223 0 15.223z"
                    fill="#916146" />
            </g>
            <g>
                <path
                    d="m249.458 258.365c9.795 0 9.811-15.223 0-15.223-9.796 0-9.812 15.223 0 15.223z"
                    fill="#916146" />
            </g>
            <g>
                <path
                    d="m236.156 301.813c9.795 0 9.811-15.223 0-15.223-9.796 0-9.812 15.223 0 15.223z"
                    fill="#916146" />
            </g>
            <g>
                <path
                    d="m180.389 325.838c9.795 0 9.811-15.223 0-15.223-9.795 0-9.812 15.223 0 15.223z"
                    fill="#916146" />
            </g>
            <g>
                <path
                    d="m158.901 385.643c9.795 0 9.811-15.223 0-15.223-9.795 0-9.812 15.223 0 15.223z"
                    fill="#916146" />
            </g>
            <g>
                <path
                    d="m94.437 400.978c9.795 0 9.811-15.223 0-15.223-9.795 0-9.812 15.223 0 15.223z"
                    fill="#916146" />
            </g>
            <g>
                <path
                    d="m95.972 450.049c9.795 0 9.811-15.223 0-15.223-9.796 0-9.812 15.223 0 15.223z"
                    fill="#916146" />
            </g>
        </g>
        <g fill="#c9ccd3">
            <path
                d="m37.106 213.1c0-4.204-3.408-7.611-7.611-7.611-4.204 0-7.611 3.408-7.611 7.611 0 11.76-4.139 17.182-9.38 24.047-5.862 7.677-12.504 16.378-12.504 33.284 0 16.908 6.642 25.611 12.502 33.288 5.241 6.866 9.381 12.29 9.381 24.052s-4.14 17.185-9.381 24.052c-5.86 7.676-12.502 16.379-12.502 33.287 0 4.204 3.408 7.612 7.611 7.612s7.611-3.408 7.611-7.612c0-11.762 4.14-17.185 9.381-24.052 5.86-7.677 12.502-16.38 12.502-33.287s-6.642-25.61-12.502-33.287c-5.241-6.867-9.381-12.29-9.381-24.052 0-11.76 4.139-17.182 9.38-24.047 5.862-7.678 12.504-16.379 12.504-33.285z" />
            <path
                d="m55.231 153.147c0-11.76 4.139-17.182 9.38-24.048 5.861-7.677 12.503-16.378 12.503-33.284 0-4.204-3.408-7.611-7.611-7.611s-7.611 3.408-7.611 7.611c0 11.76-4.139 17.182-9.38 24.047-5.86 7.677-12.503 16.378-12.503 33.284 0 16.908 6.642 25.61 12.502 33.287 5.241 6.866 9.381 12.29 9.381 24.052s-4.14 17.185-9.381 24.052c-5.86 7.677-12.502 16.38-12.502 33.288 0 4.204 3.408 7.612 7.611 7.612s7.611-3.408 7.611-7.612c0-11.762 4.14-17.185 9.381-24.052 5.86-7.677 12.502-16.38 12.502-33.287s-6.642-25.61-12.502-33.288c-5.241-6.866-9.381-12.29-9.381-24.051z" />
        </g>
    </g>
</svg>