<svg id="Capa_1" viewBox="0 0 512 512"
    xmlns="http://www.w3.org/2000/svg">
    <g>
        <path
            d="m507.811 184.025c-2.842-5.405-72.06-132.788-172.548-172.192-26.704-10.489-56.499-6.607-79.263 9.609-22.778-16.216-52.588-20.098-79.263-9.609-100.473 39.389-169.647 166.757-172.504 172.162l-4.233 7.984 5.098 7.471c4.292 6.313 107.823 154.654 250.902 156.544.015 0 .029.004.044.004 143.408-1.846 246.654-150.264 250.917-156.577l5.039-7.441z"
            fill="#e63950" />
        <path
            d="m506.961 199.42 5.039-7.441-4.189-7.954c-2.842-5.405-72.06-132.788-172.548-172.192-26.704-10.489-56.499-6.607-79.263 9.609v334.552c.015 0 .029.004.044.004 143.408-1.846 246.654-150.264 250.917-156.578z"
            fill="#ae2538" />
        <path
            d="m428.427 180.817c-26.104-27.568-67.266-64.38-115.151-83.159-8.804-3.457-18.984-1.348-25.459 5.171-8.496 8.496-20.156 12.744-31.816 12.744s-23.32-4.248-31.816-12.744c-6.46-6.475-16.289-8.716-25.547-5.142-47.769 18.735-88.857 55.474-114.917 82.983l-9.771 10.313 9.771 10.313c13.975 14.751 22.808 26.027 37.28 37.716l24.419 23.778 110.58-.089 110.64-.088 24.36-23.602c14.795-11.807 23.628-23.082 37.383-37.54l9.829-10.313z"
            fill="#704c55" />
        <path
            d="m391 239.011c14.795-11.807 23.628-23.082 37.383-37.54l9.829-10.313-9.785-10.342c-26.104-27.568-67.266-64.38-115.151-83.159-8.804-3.457-18.984-1.348-25.459 5.171-8.496 8.496-20.156 12.744-31.816 12.744v147.129l110.64-.088z"
            fill="#5a344b" />
        <path
            d="m256 234.445c-72.841-31.857-131.999 3.777-135 4.567v132.001c0 74.443 60.557 135 135 135s135-60.557 135-135v-132.002c-3.005-.793-62.212-36.452-135-4.566z"
            fill="#ff6c6c" />
        <path
            d="m391 371.012v-132.001c-3.005-.793-62.212-36.453-135-4.567v271.567c74.443.001 135-60.556 135-134.999z"
            fill="#e63950" />
        <circle cx="256" cy="341.012" fill="#fabe2c" r="75" />
        <path d="m331 341.012c0-41.353-33.647-75-75-75v150c41.353 0 75-33.647 75-75z" fill="#ff9100" />
    </g>
</svg>