<svg id="Layer_1" viewBox="0 0 512 512"
    xmlns="http://www.w3.org/2000/svg">
    <g>
        <path
            d="m138.499 415.152 98.975 96.154c6.116.458 12.293.694 18.526.694 6.232 0 12.41-.236 18.525-.694l98.975-96.154 96.538-28.884c19.711-35.298 30.959-75.965 30.959-119.266 0-135.309-109.689-244.998-244.998-244.998s-244.998 109.689-244.998 244.998c0 43.3 11.248 83.968 30.959 119.266z"
            fill="#1d2e79" />
        <path
            d="m157.101 123.382c-.247.025-.492.06-.742.06h-33.282c-.251 0-.496-.035-.742-.06v51h34.767v-51z"
            fill="#ffc242" />
        <path
            d="m389.665 123.382c-.247.025-.492.06-.742.06h-33.282c-.251 0-.496-.035-.742-.06v51h34.767v-51z"
            fill="#fef156" />
        <path
            d="m165.95 163.545h-52.464c-4.658 0-8.433 3.776-8.433 8.434v26.521l29.806 18.382 39.525-18.382v-26.521c0-4.658-3.776-8.434-8.434-8.434z"
            fill="#e8f8fc" />
        <path
            d="m139.993 39.024-28.663 18.976v61.753c0 6.46 5.286 11.747 11.747 11.747h33.282c6.461 0 11.747-5.286 11.747-11.747v-61.753z"
            fill="#6ad9fb" />
        <path
            d="m398.514 163.545h-52.464c-4.658 0-8.434 3.776-8.434 8.434v26.521l36.242 15.882 33.089-15.882v-26.521c.001-4.658-3.775-8.434-8.433-8.434z"
            fill="#e8f8fc" />
        <path
            d="m373.73 43.433-29.836 14.567v61.753c0 6.46 5.286 11.747 11.747 11.747h33.282c6.461 0 11.747-5.286 11.747-11.747v-61.753z"
            fill="#6ad9fb" />
        <path
            d="m344.687 78.382h-177.374c-8.113 0-14.75 6.638-14.75 14.75s6.637 14.75 14.75 14.75h177.373c8.112 0 14.75-6.637 14.75-14.75s-6.637-14.75-14.749-14.75z"
            fill="#fd77a6" />
        <path
            d="m256 46.746c-8.146 0-14.75 6.604-14.75 14.75v19.027c0 8.146 6.604 14.75 14.75 14.75 8.146 0 14.75-6.604 14.75-14.75v-19.027c0-8.146-6.604-14.75-14.75-14.75z"
            fill="#fea2c8" />
        <path
            d="m394.753 58h-58.471c-6.6 0-12-5.4-12-12v-34c0-6.6 5.4-12 12-12h58.471l12.194 27.382z"
            fill="#ade9f7" />
        <path d="m162.189 58h-58.471c-6.6 0-12-5.4-12-12v-34c0-6.6 5.4-12 12-12h58.471l14.669 29z"
            fill="#ade9f7" />
        <path
            d="m187.718 46v-34c0-6.6-5.4-12-12-12h-13.529c-12.359 0-22.471 10.112-22.471 22.471v13.057c0 12.36 10.112 22.472 22.471 22.472h13.529c6.6 0 12-5.4 12-12z"
            fill="#e8f8fc" />
        <path
            d="m420.282 46v-34c0-6.6-5.4-12-12-12h-13.529c-12.359 0-22.471 10.112-22.471 22.471v13.057c0 12.359 10.112 22.472 22.471 22.472h13.529c6.6 0 12-5.4 12-12z"
            fill="#e8f8fc" />
        <path d="m98.18 454.382c13.191 11.122 27.573 20.875 42.925 29.045l5.42-42.295z"
            fill="#27a6ff" />
        <path
            d="m91.886 198.5c-8.969 0-17.561 3.691-23.679 10.251-16.278 17.455-26.247 40.866-26.247 66.617v16.014l107.564 22.5 24.86-115.382z"
            fill="#27a6ff" />
        <path
            d="m406.948 198.5h-82.497c-8.969 0-17.561 3.691-23.679 10.251-16.278 17.455-26.247 40.866-26.247 66.617v235.938c37.993-2.84 73.565-14.351 104.755-32.554l45.912-127.497z"
            fill="#02c0fc" />
        <path
            d="m372.282 454.382s-.451 12.664 6.999 24.371c12.226-7.135 23.778-15.298 34.539-24.371z"
            fill="#6ad9fb" />
        <path
            d="m211.228 208.751c-6.117-6.559-14.709-10.251-23.679-10.251h-13.166s-39.525 15.788-39.525 68.502v24.38l39.525 89.667-39.525 73.333s-.594 13.902 6.246 29.045c29.122 15.497 61.74 25.29 96.37 27.879v-235.938c.001-25.751-9.968-49.162-26.246-66.617z"
            fill="#02c0fc" />
        <path
            d="m443.792 208.751c-6.117-6.559-14.709-10.251-23.679-10.251h-13.166s-34.666 15.785-34.666 57.5v35.382l52.91 23 44.847-23v-16.014c.001-25.751-9.968-49.162-26.246-66.617z"
            fill="#6ad9fb" />
        <path d="m320.525 351.255v84.67c0 10.151 8.306 18.457 18.457 18.457h33.3l20.766-119.333z"
            fill="#ade9f7" />
        <g fill="#ade9f7">
            <path d="m41.961 351.255v34.397l100.814 8.48v-54.25z" />
            <path d="m60.889 415.152c10.957 14.409 23.466 27.573 37.292 39.23h36.678l9.917-51.564z" />
        </g>
        <g fill="#e8f8fc">
            <path d="m428.525 337.382-56.243 13.873v34.459l52.91 13.972 44.847-14.034v-34.397z" />
            <path
                d="m418.025 398.882-45.743 16.208v39.292h41.538c13.826-11.657 26.334-24.821 37.292-39.23z" />
            <path
                d="m165.775 339.882-30.917 11.373v34.397l9.917 13.23-9.917 16.27v39.23h38.159c10.151 0 18.457-8.306 18.457-18.457v-84.67z" />
        </g>
        <path
            d="m372.282 291.382h-33.3c-10.151 0-18.457 8.306-18.457 18.457v41.416h51.757l18.993-26.873z"
            fill="#fd77a6" />
        <path d="m134.859 291.382h-92.898v59.873h92.898l20.666-29.937z" fill="#fe3d97" />
        <path
            d="m173.018 291.382h-38.159v59.873h56.616v-41.416c0-10.151-8.306-18.457-18.457-18.457z"
            fill="#fd77a6" />
        <path d="m372.282 351.255h97.757v-59.873h-97.757z" fill="#fea2c8" />
        <path
            d="m373.501 385.652c-8.112 0-14.75 6.637-14.75 14.75 0 8.112 6.638 14.75 14.75 14.75h77.611c6.956-9.147 13.292-18.792 18.928-28.884v-.616z"
            fill="#6289cd" />
        <path
            d="m138.499 385.652h-96.538v.616c5.635 10.092 11.972 19.737 18.928 28.884h77.611c8.112 0 14.75-6.638 14.75-14.75-.001-8.113-6.638-14.75-14.751-14.75z"
            fill="#6289cd" />
    </g>
    <g />
    <g />
    <g />
    <g />
    <g />
    <g />
    <g />
    <g />
    <g />
    <g />
    <g />
    <g />
    <g />
    <g />
    <g />
</svg>