<svg id="Capa_1"
    viewBox="0 0 511.998 511.998" xmlns="http://www.w3.org/2000/svg">
    <g>
        <path d="m436.999 511.998v-331.998l-191-10 10 341.998z" fill="#f93" />
        <path d="m84.999 330.999-10 120.999v60h181v-341.998l-181 10v29.999z" fill="#fb3" />
        <path d="m436.999 0h-181l-10 70 191-10z" fill="#cfcfe6" />
        <path d="m74.999 0v60l181 10v-70z" fill="#ece6f2" />
        <path d="m255.999 180h211v-30l-221-10z" fill="#cfcfe6" />
        <path
            d="m331.999 209.999h-76l-10 120 10 121.999h76c24.813 0 45-20.187 45-45v-151.999c0-24.813-20.186-45-45-45z"
            fill="#fb3" />
        <path d="m74.999 209.999v30l10 91-10 90.999v30h181v-241.999z" fill="#fd3" />
        <path
            d="m331.999 239.999h-76l-10 90 10 91.999h76c8.271 0 15-6.729 15-15v-151.999c0-8.271-6.728-15-15-15z"
            fill="#fd3" />
        <path d="m74.999 239.999v30l10 15-10 15v121.999h181v-181.999z" fill="#fe9" />
        <path d="m270.999 359.999h-15l-10-15 10-15h15z" fill="#5e3373" />
        <path d="m120.999 329.999h30v30h-30z" fill="#6d4d8c" />
        <path d="m316.998 299.999h-60.999l-10-15 10-15h60.999z" fill="#5e3373" />
        <g fill="#6d4d8c">
            <path d="m74.999 269.999h181v30h-181z" />
            <path d="m180.999 329.999h30v30h-30z" />
            <path d="m240.999 329.999h15v30h-15z" />
        </g>
        <path d="m44.999 150v30h211v-40z" fill="#ece6f2" />
        <path d="m255.999 60-10 45 10 45h211v-90z" fill="#ece6f2" />
        <path d="m44.999 60h211v90h-211z" fill="#fff5f5" />
    </g>
</svg>