<svg clipRule="evenodd" fillRule="evenodd" viewBox="0 0 1707 1707"
    xmlns="http://www.w3.org/2000/svg">
    <g id="Layer_x0020_1">
        <g id="_393554480">
            <g>
                <g>
                    <g>
                        <path
                            d="m1400 907c-4 0-8-1-12-3l-986-570c-6-2-10-8-11-15s-1-12 3-18l47-80c7-11 22-15 33-9l986 569c5 3 10 8 11 15 1 6 1 13-3 18l-47 82c-4 7-12 11-21 11zm-952-602 944 545 22-39-944-544z" />
                    </g>
                    <g>
                        <path
                            d="m1413 1147c-24 0-46-6-65-18l-1119-646c-63-36-85-117-49-180 17-31 46-53 81-61 33-9 69-5 98 13l1120 646c31 17 52 46 61 80 10 34 4 70-12 101-17 30-46 51-81 61-12 3-23 4-34 4zm-1119-861c-7 0-14 1-21 3-22 5-40 19-51 39-22 40-9 90 30 113l1119 646c20 11 42 14 64 9 22-6 39-20 50-39 11-20 14-43 8-64-5-21-19-39-39-50l-1119-646c-13-8-27-11-41-11z" />
                    </g>
                    <g>
                        <path
                            d="m1359 1132c-4 0-9-2-13-3-30-18-51-46-61-81-10-34-4-69 14-99 18-31 46-53 80-61 34-9 70-5 100 13 11 7 16 23 9 34s-21 15-34 8c-19-11-41-14-63-8-21 5-39 19-50 39-11 19-14 41-9 62 6 22 20 40 39 51 11 7 15 22 8 34-4 6-12 11-20 11z" />
                    </g>
                    <g>
                        <path
                            d="m1134 878c-4 0-8-1-12-3l-565-326c-11-7-15-22-8-33s22-15 33-8l565 326c11 6 15 22 8 33-6 7-13 11-21 11z" />
                    </g>
                </g>
                <g>
                    <path
                        d="m129 1498c-1 0-4 0-6 0-12-3-20-17-18-29 2-9 49-207 167-261 58-26 88-28 115-28 25 0 43 0 87-23 36-20 72-53 111-89 36-33 72-68 111-92 150-93 254-2 347 77 41 36 80 69 122 87 26 12 56 25 88 37 146 59 327 132 350 285 1 13-7 25-21 27s-25-7-28-20c-18-127-186-193-320-247-33-14-64-27-92-39-48-22-91-60-133-96-91-79-170-147-288-72-35 22-69 54-104 86-39 36-79 74-121 97-55 31-83 31-109 31-24 0-46 0-94 23-82 36-129 176-141 226-2 11-12 20-23 20z" />
                </g>
                <g>
                    <path
                        d="m1682 1498h-1657c-14 0-25-11-25-25s11-25 25-25h1657c14 0 25 11 25 25s-13 25-25 25z" />
                </g>
                <g>
                    <path
                        d="m317 1385c-11 0-20-7-23-18-3-12 4-26 17-29l52-14c13-2 27 5 29 17 3 12-4 26-16 29l-53 14c-1 0-4 1-6 1z" />
                </g>
                <g>
                    <path
                        d="m531 1281c-11 0-21-7-24-18-2-12 5-26 17-29l53-14c12-2 26 5 29 17s-4 26-17 29l-52 14c-2 1-5 1-6 1z" />
                </g>
                <g>
                    <path
                        d="m710 1331c-11 0-21-7-24-18-3-12 4-26 17-29l53-14c12-2 26 4 29 17 2 12-4 26-17 29l-53 14c-1 0-2 1-5 1z" />
                </g>
                <g>
                    <path
                        d="m790 1144c-11 0-21-7-23-18-4-12 4-26 16-29l52-14c12-4 26 4 29 17 4 12-4 26-17 29l-51 14c-2 1-4 1-6 1z" />
                </g>
                <g>
                    <path
                        d="m958 1342c-11 0-21-7-24-18-2-12 5-26 17-29l53-14c12-2 26 5 29 17s-4 26-17 29l-52 14c-2 0-5 1-6 1z" />
                </g>
            </g>
        </g>
    </g>
</svg>