<svg clipRule="evenodd" fillRule="evenodd" viewBox="0 0 512 512"
    xmlns="http://www.w3.org/2000/svg">
    <g id="Layer_x0020_1">
        <path
            d="m122 85 10-19c2-3 7-4 10-2l296 170c3 2 5 7 2 10l-10 18c15 9 27 14 32 32 7 24-10 50-38 50-10 0-16-3-23-7l-332-192c-31-18-25-64 9-73 19-4 29 4 44 13zm165 318c-8 0-9-13-2-14 9-3 23-9 25 0 1 4-1 8-5 9zm-50-60c-8 0-10-12-2-14 11-3 22-8 24 1 3 11-15 10-20 13-1 0-2 0-2 0zm-24 56c-9 0-10-12-2-14 9-2 22-8 24 1 1 4-1 8-5 9zm-54-15c-9 0-9-12-2-14 9-2 23-8 25 1 1 4-1 8-5 9zm-64 32c-9 0-9-13-2-15 9-2 23-8 25 1 1 4-2 8-5 9zm410 33h-498c-9 0-9-15 0-15h26c5-16 19-58 49-72 46-21 35 12 94-42 10-10 21-20 33-27 64-39 98 30 140 49 47 21 120 40 131 92h25c10 0 9 15 0 15zm-457-15h417c-12-41-80-60-122-79-45-20-74-84-127-50-22 14-45 42-67 54-31 18-29 2-61 17-21 9-34 40-40 58zm337-123c-3-18 8-37 25-43l-309-179c-12-7-28-3-34 9-7 12-3 27 9 34zm51-28c-19-11-42 6-36 28 5 21 34 26 45 6 7-12 4-27-9-34zm-96-20c-1 0-2 0-4 0l-169-98c-8-5 0-18 8-13l169 98c6 4 4 13-4 13zm-206-171 284 163 6-12-283-163z"
            fill="#52abb3" />
        <path d="m141 80-7 12 284 163 6-12z" fill="#fefefe" />
        <path
            d="m410 268-309-179c-12-7-28-3-34 9-7 12-3 27 9 34l309 179c-3-18 8-37 25-43zm-70-5c-1 0-2 0-4 0l-169-98c-8-5 0-18 8-13l169 98c6 4 4 13-4 13z"
            fill="#aadde3" />
        <path d="m436 283c-19-11-42 6-36 28 5 21 34 26 45 6 7-12 4-27-9-34z" fill="#fefefe" />
        <path
            d="m465 434c-12-41-80-60-122-79-45-20-74-84-127-50-22 14-45 42-67 54-31 18-29 2-61 17-21 9-34 40-40 58zm-155-45c1 4-1 8-5 9l-18 5c-8 0-9-13-2-14 9-3 23-9 25 0zm-75-3c1 4-1 8-5 9l-17 4c-9 0-10-12-2-14 9-2 22-8 24 1zm-58-6-18 4c-9 0-9-12-2-14 9-2 23-8 25 1 1 4-1 8-5 9zm-84 21c9-2 23-8 25 1 1 4-2 8-5 9l-18 5c-9 0-9-13-2-15zm166-71c3 11-15 10-20 13-1 0-2 0-2 0-8 0-10-12-2-14 11-3 22-8 24 1z"
            fill="#aadde3" />
    </g>
</svg>